<?xml version="1.0" standalone="no"?>
<!DOCTYPE svg PUBLIC "-//W3C//DTD SVG 20010904//EN"
 "http://www.w3.org/TR/2001/REC-SVG-20010904/DTD/svg10.dtd">
<svg version="1.0" xmlns="http://www.w3.org/2000/svg"
 width="1251.000000pt" height="1251.000000pt" viewBox="0 0 1251.000000 1251.000000"
 preserveAspectRatio="xMidYMid meet">

<g transform="translate(0.000000,1251.000000) scale(0.100000,-0.100000)"
fill="#000000" stroke="none">
<path d="M6047 10729 c-401 -39 -769 -164 -1077 -366 -141 -93 -214 -153 -348
-285 -274 -271 -476 -587 -601 -943 -44 -122 -91 -318 -91 -374 0 -118 -64
-593 -151 -1115 -27 -164 -49 -301 -49 -305 0 -4 -15 -13 -34 -19 -40 -15
-108 -78 -131 -122 -26 -51 -30 -121 -10 -184 16 -51 17 -65 5 -141 -19 -124
-9 -202 64 -469 36 -132 73 -278 81 -325 55 -299 152 -537 447 -1098 270 -513
351 -709 422 -1018 70 -300 116 -407 221 -511 97 -95 199 -130 530 -179 55 -8
121 -15 148 -15 26 0 47 -4 47 -9 0 -11 -144 -133 -235 -198 -81 -59 -262
-164 -322 -188 -23 -9 -44 -23 -47 -31 -3 -8 10 -42 28 -77 30 -54 81 -196 74
-202 -2 -1 -44 -29 -93 -62 -256 -171 -457 -371 -627 -624 -315 -470 -455
-1098 -387 -1739 6 -52 12 -102 14 -110 4 -13 316 -15 2730 -15 2718 0 2726 0
2730 20 9 48 68 718 77 893 17 299 -7 587 -68 802 -33 116 -140 327 -218 431
-84 110 -228 247 -345 328 -51 35 -210 124 -354 199 -144 75 -359 186 -477
247 l-214 112 -46 134 c-92 265 -133 325 -232 343 -34 6 -37 9 -48 58 -40 190
-70 556 -70 870 l0 236 35 81 c82 193 123 346 206 765 32 164 60 300 62 302 2
2 34 -4 72 -13 92 -22 179 -8 294 48 97 48 208 150 281 258 94 141 202 413
256 648 39 170 45 367 15 497 -27 114 -73 213 -136 290 l-47 59 16 77 c54 249
70 572 43 871 -9 96 -19 242 -21 324 -31 937 -522 1558 -1401 1770 -306 74
-710 103 -1018 74z m756 -88 c469 -73 820 -230 1085 -485 226 -218 365 -464
447 -790 32 -129 65 -338 65 -418 l0 -41 -49 46 c-141 132 -418 262 -776 366
l-71 21 -1 82 c-2 184 -105 331 -269 383 -45 14 -54 22 -70 58 -26 57 -128
158 -191 191 -153 77 -307 70 -435 -20 l-47 -33 -25 20 c-62 49 -116 64 -226
63 -84 0 -117 -5 -163 -23 -65 -26 -162 -109 -192 -165 -14 -25 -24 -34 -35
-30 -8 3 -43 11 -78 17 -119 21 -242 -24 -338 -124 -64 -68 -94 -129 -101
-208 l-5 -57 -58 -17 c-32 -9 -79 -33 -104 -52 -34 -26 -66 -40 -119 -50 -122
-26 -336 -84 -465 -127 -117 -39 -124 -42 -137 -76 -8 -19 -15 -38 -15 -42 0
-4 75 19 168 50 162 55 436 129 446 119 2 -2 -4 -29 -14 -59 -35 -101 -21
-227 34 -310 l25 -38 -29 -27 c-16 -15 -43 -55 -61 -89 -30 -56 -33 -68 -34
-153 0 -55 -4 -93 -10 -93 -60 0 -367 24 -460 35 -233 29 -359 72 -442 152
-38 38 -43 47 -43 88 0 39 5 51 41 90 46 50 142 117 235 163 51 26 62 36 72
68 6 21 10 39 8 41 -7 7 -226 -110 -273 -147 -29 -22 -53 -38 -53 -35 0 13 66
197 96 267 190 445 533 852 919 1088 209 129 492 238 736 285 209 40 264 44
579 40 240 -2 321 -7 433 -24z m98 -630 c32 -12 78 -41 104 -64 51 -44 105
-112 105 -132 0 -7 -25 -15 -62 -20 -133 -17 -143 -15 -218 44 -14 11 -38 23
-54 27 l-28 7 31 -43 c49 -68 71 -139 71 -231 0 -52 -5 -90 -15 -109 -19 -37
-28 -39 -15 -4 6 14 10 40 9 57 l0 32 -18 -40 c-41 -92 -132 -133 -270 -121
-113 9 -177 44 -215 116 l-28 55 5 -55 c5 -45 4 -50 -5 -30 -30 71 1 230 51
262 48 30 3 38 -69 13 -28 -10 -61 -13 -99 -9 l-56 6 37 -34 c46 -41 68 -86
68 -135 0 -22 7 -65 15 -96 8 -32 14 -79 13 -105 -1 -46 -2 -45 -7 13 l-6 60
-22 -60 c-45 -120 -96 -169 -193 -184 -101 -16 -164 15 -192 95 -10 27 -24 61
-33 76 -8 14 -15 33 -15 41 0 9 -7 23 -17 32 -14 14 -15 25 -6 73 6 31 9 59 6
62 -2 2 -16 -11 -30 -29 -30 -38 -77 -61 -125 -61 -33 -1 -33 -1 17 -27 66
-33 102 -68 131 -125 53 -105 51 -181 -8 -252 -49 -59 -129 -67 -210 -19 -34
20 -98 96 -98 116 0 7 6 3 12 -8 55 -100 191 -158 263 -111 34 22 64 89 65
141 l0 39 -22 -44 c-58 -114 -215 -114 -298 1 -15 21 -30 35 -34 32 -3 -3 -6
5 -6 18 0 19 -2 21 -10 9 -5 -8 -10 -34 -10 -57 0 -43 -17 -93 -31 -93 -11 0
-69 -60 -69 -71 0 -5 15 0 33 11 43 27 113 27 127 0 17 -31 120 -100 151 -100
l28 0 -14 -41 c-8 -23 -15 -50 -15 -60 0 -23 -37 -49 -70 -49 -14 0 -58 23
-98 50 -59 40 -82 50 -115 50 -90 0 -197 96 -213 189 -3 20 -9 47 -14 61 -6
22 -8 19 -15 -23 -7 -46 -4 -87 9 -132 4 -11 -1 -4 -10 15 -36 78 1 225 76
300 87 87 223 111 327 57 53 -27 103 -81 103 -110 0 -9 5 -19 11 -23 18 -11 5
87 -15 119 -19 28 -122 84 -166 90 -23 4 -25 9 -28 57 -10 176 224 336 405
276 54 -18 118 -77 149 -136 12 -24 19 -64 22 -125 3 -75 0 -96 -16 -127 -22
-42 -15 -50 14 -17 27 31 76 49 131 49 l48 1 -35 18 c-57 31 -80 63 -95 134
-16 78 -43 132 -84 171 -29 28 -30 30 -14 60 30 60 82 113 143 145 51 28 76
34 145 38 149 10 235 -39 294 -167 45 -97 52 -176 21 -248 -12 -28 -28 -57
-36 -63 -26 -22 -14 -26 31 -12 39 13 52 13 110 1 36 -8 65 -12 65 -9 0 3 -13
15 -28 25 -49 33 -72 76 -72 137 0 78 -42 217 -71 234 -7 5 0 18 18 37 80 85
224 109 354 59z m347 -286 c109 -50 176 -148 185 -270 3 -33 2 -44 -2 -25 l-6
35 -13 -42 c-27 -91 -117 -152 -234 -161 -38 -2 -68 -8 -68 -12 0 -4 11 -24
25 -44 14 -20 25 -51 25 -69 0 -51 15 -64 30 -27 18 44 53 67 110 75 28 4 52
11 56 16 17 28 83 -10 110 -63 22 -42 34 -135 24 -183 -5 -28 -8 -33 -9 -15
-1 23 -4 21 -24 -16 -32 -59 -47 -77 -95 -112 -78 -56 -182 -50 -182 10 0 23
26 58 43 58 6 0 25 12 44 26 l34 25 31 -33 31 -33 -8 45 c-4 25 -14 58 -22 73
-10 20 -12 42 -8 70 l7 42 -26 -27 c-35 -37 -69 -45 -102 -23 -22 14 -28 15
-35 4 -5 -8 -9 -18 -9 -22 0 -4 -16 -15 -35 -23 -74 -30 -168 24 -204 119
l-20 52 0 -45 c-1 -26 7 -63 19 -85 19 -39 19 -40 0 -17 -20 25 -40 82 -40
118 0 39 30 121 60 162 54 75 186 131 246 103 19 -8 24 -8 24 3 0 16 -25 39
-68 60 -21 11 -32 23 -30 34 4 22 63 55 113 62 l40 7 -37 16 c-21 10 -60 17
-88 17 -29 0 -61 7 -74 15 l-23 15 -5 -58 c-7 -76 -30 -120 -74 -138 -19 -8
-44 -30 -56 -49 -23 -34 -58 -48 -58 -22 0 8 12 42 26 77 21 53 25 76 23 144
-2 45 0 86 4 92 10 16 74 46 132 61 68 17 144 10 213 -22z m178 -372 c-3 -11
-23 -35 -43 -54 l-37 -34 37 43 c20 23 37 50 37 59 0 9 3 14 6 10 3 -3 3 -14
0 -24z m-788 -25 c97 -46 187 -179 199 -291 10 -95 -38 -186 -125 -239 -20
-12 -57 -37 -82 -55 -59 -45 -98 -43 -122 7 l-18 35 0 -30 c1 -47 33 -108 80
-148 106 -90 267 -91 385 -1 47 36 44 49 -5 24 -49 -25 -77 -25 -85 -1 -5 17
-8 16 -35 -10 -40 -41 -106 -41 -152 -1 -56 51 -37 118 41 143 20 6 49 19 64
28 27 15 29 15 47 -9 11 -14 20 -32 20 -40 0 -8 5 -22 11 -30 7 -11 9 3 6 50
-5 81 7 118 40 126 59 15 122 -44 124 -115 l1 -36 13 40 13 40 1 -36 c2 -79
-81 -188 -178 -233 -65 -30 -189 -29 -248 2 -94 49 -145 120 -158 219 -15 108
39 189 145 220 59 18 78 33 41 33 -46 0 -49 7 -45 93 4 77 3 80 -10 51 -23
-48 -42 -60 -65 -40 -10 9 -36 20 -57 23 l-39 6 21 -24 c54 -61 58 -112 13
-164 -17 -19 -39 -61 -49 -93 -16 -52 -20 -57 -49 -60 -37 -4 -91 26 -116 64
-9 15 -25 49 -35 78 -18 50 -19 50 -19 16 0 -19 6 -52 13 -72 20 -56 9 -46
-22 20 -52 111 -30 236 57 319 45 45 139 98 197 112 53 13 130 4 182 -21z
m972 -89 c299 -89 564 -216 695 -330 55 -48 95 -107 95 -140 0 -65 -98 -129
-256 -169 -152 -37 -504 -70 -757 -70 l-118 0 7 48 c3 26 7 47 8 48 0 0 26 13
57 27 79 38 140 95 179 169 29 53 35 76 38 146 6 116 -17 201 -70 254 -34 34
-42 58 -20 58 4 0 68 -18 142 -41z m-1533 -141 c45 -23 46 -24 49 -79 5 -84
36 -156 99 -227 95 -109 107 -160 42 -181 -34 -12 -71 -5 -123 22 -31 17 -104
89 -122 122 -11 19 -11 19 -12 -3 0 -53 78 -152 160 -201 19 -12 30 -21 24
-21 -17 0 -107 69 -136 105 -65 78 -81 158 -51 248 12 33 16 57 10 57 -6 0
-29 -20 -52 -44 -27 -30 -54 -48 -84 -56 -51 -13 -91 -31 -91 -39 0 -3 20 -7
45 -7 64 -2 104 -21 111 -53 10 -45 55 -154 75 -183 l20 -28 -91 0 -91 0 -55
54 c-34 35 -67 82 -89 128 -19 40 -35 65 -35 56 0 -41 42 -144 80 -196 l41
-57 -42 45 c-66 71 -93 139 -94 235 0 101 23 168 77 230 88 100 224 130 335
73z m-907 -185 c0 -10 -59 70 -60 81 0 5 14 -10 30 -32 17 -23 30 -45 30 -49z
m189 -39 c36 -10 69 -30 100 -59 26 -24 59 -49 74 -54 20 -8 27 -17 27 -36 0
-21 -8 -30 -46 -47 -52 -22 -117 -20 -182 7 -31 14 -34 13 -28 -2 6 -15 4 -15
-14 2 -20 18 -20 18 -20 -15 0 -24 9 -40 36 -65 22 -21 34 -40 32 -52 -3 -16
-16 -18 -150 -20 -166 -2 -158 -6 -158 88 0 119 78 225 188 255 63 17 79 17
141 -2z m2072 -63 c-19 -27 -69 -69 -101 -85 -8 -4 -1 3 15 15 17 13 46 40 65
61 42 45 49 48 21 9z m-193 -118 c-10 -2 -26 -2 -35 0 -10 3 -2 5 17 5 19 0
27 -2 18 -5z m-3089 -122 c171 -65 375 -95 756 -112 314 -14 2561 -6 2810 10
326 22 516 55 630 111 33 16 63 26 67 22 15 -15 27 -369 18 -520 -10 -159 -11
-173 -36 -307 -24 -127 -19 -120 -67 -92 -108 63 -263 80 -380 42 -66 -21
-156 -80 -173 -113 -6 -12 -19 -31 -29 -42 -16 -18 -20 -19 -35 -5 -14 13 -63
12 -420 -10 -431 -26 -538 -36 -664 -61 -112 -23 -285 -84 -466 -166 -244
-110 -414 -176 -534 -208 -113 -30 -278 -60 -330 -60 l-28 0 7 68 c3 37 13 95
21 129 16 72 11 93 -21 93 -33 0 -44 -38 -70 -253 l-6 -49 -169 4 c-93 2 -171
5 -173 8 -3 3 1 38 10 78 11 57 12 76 3 88 -28 33 -53 10 -65 -61 -13 -71 -20
-69 -55 17 -35 88 -55 118 -76 118 -34 0 -32 -35 7 -124 21 -49 37 -92 34 -94
-7 -7 -157 26 -249 55 -43 14 -164 61 -267 104 -185 78 -286 108 -361 109 -25
0 -38 5 -38 13 0 7 31 200 69 428 56 334 121 793 121 857 0 7 18 -1 41 -18 23
-16 76 -42 118 -59z m2301 64 c0 -19 -82 -105 -101 -105 -7 0 2 11 22 24 19
13 43 40 54 60 22 40 25 43 25 21z m-827 -26 c39 -9 61 -31 85 -82 2 -4 -71
-6 -162 -5 -105 2 -165 7 -163 13 5 15 106 73 136 78 49 7 62 7 104 -4z m1132
-1480 c122 -22 232 -91 281 -175 36 -61 44 -161 19 -236 -42 -128 -181 -280
-422 -460 -332 -249 -552 -348 -773 -351 -122 -1 -171 13 -381 114 -233 111
-291 130 -419 136 -61 3 -121 1 -144 -5 l-38 -11 5 47 c4 26 9 101 13 167 6
103 4 122 -9 133 -12 10 -21 11 -36 2 -18 -9 -21 -20 -21 -78 0 -37 -5 -119
-10 -182 -9 -102 -13 -117 -32 -130 -12 -8 -50 -39 -83 -69 -80 -71 -131 -94
-215 -93 -86 0 -180 33 -312 107 -374 212 -575 484 -556 753 8 105 59 185 127
199 45 9 68 5 98 -14 14 -9 33 -13 48 -9 20 5 54 -9 153 -64 216 -120 347
-160 680 -211 236 -36 483 -48 599 -29 189 30 460 130 845 311 296 139 437
175 583 148z m-1562 -1084 c150 -38 318 -146 521 -335 163 -151 211 -169 398
-150 352 36 558 119 800 320 46 38 106 81 133 94 107 55 225 55 396 0 46 -15
93 -28 105 -28 11 -1 35 -18 53 -39 l33 -37 -57 -288 c-100 -506 -138 -638
-245 -857 -140 -284 -291 -443 -915 -965 -302 -252 -391 -319 -490 -366 -100
-48 -218 -74 -339 -74 -97 0 -304 25 -455 55 -299 60 -392 166 -476 545 -55
244 -134 471 -248 712 -39 83 -52 119 -44 127 6 6 19 49 28 96 17 85 35 122
104 218 44 62 64 129 72 243 5 86 5 92 -15 103 -35 18 -52 -9 -52 -84 0 -106
-17 -160 -78 -249 -64 -94 -78 -126 -95 -208 l-13 -61 -141 269 c-111 212
-253 502 -253 518 0 1 13 1 28 -2 24 -3 35 4 69 42 43 49 76 66 127 66 31 0
477 -88 485 -95 1 -2 -6 -32 -17 -67 -31 -94 -34 -122 -22 -168 21 -76 108
-140 144 -104 12 12 19 9 48 -18 123 -116 357 -129 496 -28 46 33 53 54 22 70
-15 8 -29 4 -67 -20 -129 -82 -302 -69 -403 29 -80 77 -81 92 -26 371 25 129
49 259 52 287 4 29 13 58 21 65 47 39 190 45 316 13z m-468 -426 c-26 -113
-31 -226 -11 -271 12 -26 -16 -23 -40 3 -33 36 -25 115 26 261 24 70 45 126
47 124 2 -2 -8 -55 -22 -117z m2614 -1669 c19 -177 41 -317 77 -503 l35 -178
-26 -46 c-37 -62 -129 -151 -219 -212 -112 -76 -254 -147 -506 -256 -389 -168
-560 -265 -676 -387 -73 -75 -103 -132 -140 -259 -15 -51 -42 -130 -61 -174
-20 -44 -44 -105 -54 -135 -23 -63 -66 -133 -78 -125 -11 6 -24 80 -55 296
l-24 165 23 110 c45 218 74 571 75 890 l0 122 78 17 c104 23 239 88 342 166
101 76 475 390 685 574 183 161 382 366 450 462 l50 72 6 -247 c4 -136 12
-294 18 -352z m251 -600 c79 -156 161 -432 163 -547 1 -80 -15 -103 -198 -292
-230 -237 -402 -377 -735 -597 -190 -125 -304 -219 -337 -275 l-17 -28 -62
123 c-127 252 -215 368 -298 396 -21 7 -62 10 -92 8 l-53 -5 15 36 c29 68 62
116 121 173 111 105 272 193 643 353 368 158 528 251 656 380 91 92 135 176
142 275 2 38 9 67 14 64 4 -3 22 -32 38 -64z m-1978 -332 c-9 -146 -16 -198
-48 -328 -36 -144 -38 -165 -38 -300 0 -124 22 -340 49 -480 3 -14 -9 7 -27
45 -60 133 -230 460 -273 526 -24 36 -93 123 -152 195 l-108 129 67 33 c138
67 318 197 468 336 57 53 65 58 68 39 2 -12 -1 -100 -6 -195z m2411 -372
c-227 -211 -665 -657 -797 -811 -359 -418 -478 -622 -649 -1110 -88 -250 -176
-578 -177 -657 l0 -28 -391 0 -390 0 6 163 c25 671 47 1144 56 1212 15 119 26
152 70 208 22 27 70 100 105 161 86 145 147 229 185 257 31 22 32 22 65 4 19
-10 51 -41 73 -69 46 -61 153 -256 209 -381 58 -129 78 -135 130 -43 43 78
160 180 313 277 158 99 305 203 438 308 124 99 466 441 517 517 36 55 39 64
39 130 0 39 -3 91 -8 114 l-8 44 171 -88 171 -88 -128 -120z m-2838 -171 c49
-69 115 -183 115 -200 0 -16 -214 -94 -226 -82 -3 2 3 42 12 88 17 83 16 256
-1 304 -13 34 36 -19 100 -110z m429 28 c-4 -43 -10 -69 -12 -59 -5 24 8 149
15 143 3 -3 1 -41 -3 -84z m2994 27 c395 -212 623 -485 727 -871 75 -280 80
-580 20 -1207 l-39 -412 -1244 0 -1245 0 7 76 c8 84 48 295 70 364 44 138 141
372 214 515 180 353 545 781 1128 1321 88 82 183 175 210 206 27 31 51 57 53
57 2 1 47 -22 99 -49z m-3582 -142 c-7 -95 -20 -151 -29 -128 -34 85 -56 154
-53 158 14 13 72 51 80 52 5 0 6 -36 2 -82z m387 -327 c82 -171 137 -308 172
-429 31 -109 32 -116 17 -297 -11 -130 -32 -610 -48 -1093 l-7 -202 -170 0
-170 0 7 37 c25 154 13 923 -20 1231 -23 229 -76 508 -146 780 -2 10 27 22 92
41 52 15 115 37 140 48 25 12 50 22 56 22 6 1 41 -62 77 -138z m-764 9 c88
-199 169 -572 203 -940 13 -153 16 -720 4 -942 l-8 -148 -428 0 -427 0 -14 98
c-20 137 -17 481 5 647 66 502 253 934 551 1274 39 44 73 80 76 80 4 1 20 -31
38 -69z"/>
<path d="M6230 6809 c-102 -17 -296 -125 -373 -207 -24 -25 -28 -36 -22 -61 5
-26 17 -36 69 -61 97 -46 177 -63 276 -58 73 3 97 9 161 40 148 70 289 198
289 261 0 17 -77 57 -145 76 -58 16 -191 21 -255 10z m103 -63 c59 -13 88
-113 45 -154 -86 -80 -216 -35 -235 81 -4 30 -1 38 20 52 24 15 109 34 132 29
6 -1 23 -5 38 -8z m193 -22 c19 -8 34 -19 34 -24 0 -12 -79 -90 -91 -90 -5 0
-9 17 -9 38 -1 20 -7 48 -15 62 -8 14 -14 29 -15 33 0 10 50 0 96 -19z m-436
-59 c0 -64 70 -149 131 -162 85 -17 -37 -37 -131 -22 -76 12 -190 57 -190 74
0 19 157 135 183 135 4 0 7 -11 7 -25z"/>
<path d="M6254 6676 c-9 -24 4 -48 23 -44 12 2 18 12 18 28 0 29 -32 41 -41
16z"/>
<path d="M4125 6744 c-11 -2 -44 -9 -72 -15 -29 -6 -53 -13 -54 -17 0 -4 -2
-17 -5 -30 -8 -47 81 -167 179 -239 116 -84 266 -105 397 -53 73 29 180 106
180 130 0 46 -201 170 -335 205 -59 15 -251 28 -290 19z m150 -71 c-27 -70
-13 -160 32 -213 30 -37 26 -37 -44 -4 -60 29 -155 116 -190 176 l-22 38 27 6
c15 3 32 7 37 9 6 2 45 4 89 4 70 1 77 -1 71 -16z m192 -44 c60 -31 91 -85 73
-128 -21 -51 -84 -65 -148 -32 -60 31 -85 95 -65 170 5 21 10 23 50 18 24 -2
64 -15 90 -28z m175 -75 c41 -29 40 -37 -10 -67 l-30 -17 -4 55 c-1 30 -1 55
1 55 3 0 22 -12 43 -26z"/>
<path d="M4414 6585 c-9 -23 3 -45 25 -45 23 0 35 28 20 46 -15 18 -38 18 -45
-1z"/>
<path d="M5627 5713 c-16 -16 -4 -41 30 -64 62 -40 78 -79 78 -189 0 -59 -5
-108 -14 -129 -14 -32 -16 -33 -55 -27 -22 4 -66 21 -98 38 -31 17 -64 28 -73
25 -20 -8 -19 -40 3 -60 29 -26 125 -66 175 -73 42 -6 49 -4 76 23 16 16 35
50 41 74 17 64 15 199 -5 258 -26 79 -125 157 -158 124z"/>
<path d="M5830 5495 c-19 -23 -7 -39 82 -101 186 -130 225 -163 268 -229 23
-35 59 -80 80 -99 46 -42 139 -78 205 -80 47 -1 50 1 50 24 0 22 -7 26 -70 43
-106 27 -144 53 -195 129 -25 37 -58 81 -75 98 -33 35 -308 230 -323 230 -5 0
-15 -7 -22 -15z"/>
<path d="M6270 4958 c-56 -28 -77 -32 -170 -36 -67 -3 -149 2 -225 13 -197 27
-318 23 -471 -16 -141 -36 -171 -38 -534 -28 -151 4 -171 2 -238 -19 -74 -23
-94 -41 -73 -66 12 -14 65 -30 92 -27 26 3 126 -47 143 -71 9 -12 28 -61 42
-108 44 -145 109 -185 343 -210 216 -24 422 1 568 70 96 44 147 83 283 215
113 109 170 153 308 239 33 21 43 32 40 49 -4 32 -33 30 -108 -5z m-451 -85
c168 -20 164 -23 -74 -53 -130 -16 -232 -20 -550 -22 -361 -3 -392 -2 -420 15
-29 18 -27 18 135 10 271 -13 349 -9 485 25 192 49 216 50 424 25z m96 -155
c-102 -95 -141 -125 -200 -155 -80 -41 -147 -61 -251 -74 -109 -13 -362 -6
-429 12 -57 16 -117 81 -139 153 -10 31 -17 59 -15 60 2 2 182 9 399 15 384
11 440 15 704 60 4 0 -27 -31 -69 -71z"/>
<path d="M6392 4953 c-13 -23 -35 -314 -26 -337 4 -11 15 -16 33 -14 26 3 26
5 33 103 4 55 8 136 10 180 3 76 2 80 -19 83 -13 2 -25 -4 -31 -15z"/>
<path d="M4800 4391 c-12 -8 -12 -17 4 -68 36 -117 88 -178 177 -208 73 -24
398 -68 456 -61 75 9 153 40 236 96 86 57 110 82 101 103 -11 30 -33 25 -108
-28 -159 -110 -224 -121 -476 -80 -91 14 -180 31 -197 36 -47 15 -84 58 -119
141 -31 73 -46 87 -74 69z"/>
<path d="M5714 775 c-17 -42 -19 -126 -2 -143 7 -7 34 -12 60 -12 44 0 50 3
68 33 11 17 20 42 20 55 0 38 -27 79 -61 91 -53 18 -69 14 -85 -24z"/>
<path d="M8737 1981 c-354 -178 -610 -476 -728 -850 -35 -110 -33 -133 9 -139
25 -4 27 1 67 128 108 345 376 648 713 808 51 24 96 51 99 59 7 19 -9 47 -28
51 -8 1 -67 -24 -132 -57z"/>
<path d="M7407 1093 c-15 -14 -5 -47 42 -141 66 -133 150 -364 177 -487 37
-173 37 -182 9 -272 -32 -105 -31 -128 9 -128 35 0 24 -27 140 370 41 138 71
256 68 263 -3 8 -17 12 -35 10 -33 -3 -32 -2 -92 -212 l-17 -59 -28 109 c-40
155 -82 269 -155 422 -56 115 -67 132 -88 132 -13 0 -27 -3 -30 -7z"/>
<path d="M4409 963 c-5 -15 -20 -79 -32 -142 -18 -100 -21 -151 -20 -366 0
-137 4 -263 10 -280 8 -24 15 -30 39 -30 33 0 32 -22 19 240 -8 164 2 301 37
473 16 82 18 105 8 117 -20 24 -49 18 -61 -12z"/>
<path d="M2650 10420 c-97 -11 -211 -48 -297 -95 -87 -49 -225 -186 -277 -278
-38 -65 -40 -67 -60 -52 -78 57 -148 85 -216 85 -48 0 -141 -25 -193 -52 l-42
-21 58 -18 c32 -9 69 -25 84 -34 38 -26 20 -36 -164 -94 -227 -72 -324 -123
-407 -212 -56 -61 -169 -219 -235 -331 l-22 -37 68 46 c86 59 200 112 454 214
112 44 239 99 283 122 109 57 156 56 323 -7 165 -62 240 -74 315 -52 55 16
128 71 128 96 0 6 -27 10 -59 10 -33 0 -71 4 -85 10 -72 27 -86 94 -38 171 41
64 163 175 272 248 200 134 374 202 610 241 l105 17 -50 12 c-61 16 -448 23
-555 11z"/>
<path d="M8814 5221 c-23 -10 -56 -37 -74 -60 -27 -33 -36 -38 -51 -31 -22 12
-79 13 -97 1 -10 -6 -8 -10 8 -14 29 -8 18 -24 -23 -32 -68 -15 -122 -52 -160
-109 l-37 -55 33 19 c17 10 76 38 131 61 l99 42 52 -17 c55 -17 84 -20 109
-10 22 8 20 24 -3 24 -10 0 -24 6 -30 14 -32 39 95 136 221 170 l53 15 -95 0
c-72 0 -105 -4 -136 -18z"/>
<path d="M11260 4325 c-46 -15 -88 -47 -116 -90 -15 -23 -18 -23 -37 -10 -26
18 -60 19 -90 4 l-21 -12 24 -9 c23 -9 20 -11 -37 -32 -82 -30 -106 -47 -141
-98 -46 -69 -48 -73 -16 -51 32 23 222 103 244 103 7 0 37 -8 66 -17 45 -14
58 -14 81 -3 l28 13 -27 9 c-20 7 -28 17 -28 33 0 43 114 124 208 148 29 7 49
16 46 20 -12 12 -137 6 -184 -8z"/>
</g>
</svg>
